<svg width="512" height="512" viewBox="0 0 512 512" fill="none" xmlns="http://www.w3.org/2000/svg">
<g clip-path="url(#clip0)">
<path d="M502.329 77.8141L509.07 71.0732C512.975 67.1682 512.975 60.8363 509.07 56.9303C505.165 53.0264 498.833 53.0264 494.927 56.9303L488.186 63.6712L481.449 56.9343C479.574 55.0594 477.03 54.0054 474.378 54.0054H463.38L412.303 2.92897C410.427 1.05399 407.884 0 405.232 0H36.0146C16.1568 0 0.00100708 16.1548 0.00100708 36.0136V223.412C0.00100708 243.27 16.1568 259.426 36.0146 259.426H123.134L64.5493 318.011C57.7473 324.813 54.0014 333.857 54.0014 343.477C54.0014 353.096 57.7473 362.14 64.5493 368.943L197.06 501.453C203.862 508.255 212.906 512.001 222.525 512.001C232.145 512.001 241.189 508.255 247.991 501.453L347.237 402.208C351.143 398.303 351.143 391.971 347.237 388.065C343.332 384.162 337 384.161 333.095 388.065L233.848 487.31C230.824 490.335 226.802 492 222.525 492C218.248 492 214.226 490.335 211.203 487.31L78.6911 354.8C75.6671 351.776 74.0011 347.754 74.0011 343.477C74.0011 339.199 75.6671 335.178 78.6911 332.154L336.838 74.0071H470.237L474.045 77.8151L450.922 100.939C447.005 99.0608 442.622 98.0078 437.996 98.0078C421.454 98.0078 407.996 111.466 407.996 128.007C407.996 144.549 421.454 158.007 437.996 158.007C454.538 158.007 467.996 144.549 467.996 128.007C467.996 123.382 466.942 118.998 465.064 115.082L488.187 91.9579L491.995 95.7659V229.164L396.732 324.428C392.827 328.333 392.827 334.665 396.732 338.571C400.637 342.475 406.969 342.475 410.875 338.571L509.067 240.379C510.942 238.503 511.996 235.96 511.996 233.308V91.6219C511.996 88.9699 510.942 86.427 509.067 84.551L502.329 77.8141ZM179.578 179.433C174.062 179.433 169.575 174.946 169.575 169.43C169.575 163.913 174.062 159.426 179.578 159.426C185.094 159.426 189.581 163.913 189.581 169.43C189.581 174.945 185.094 179.433 179.578 179.433ZM332.696 54.0064C330.044 54.0064 327.5 55.0604 325.625 56.9353L209.333 173.227C209.491 171.982 209.582 170.716 209.582 169.429C209.582 152.885 196.123 139.425 179.579 139.425C163.036 139.425 149.576 152.885 149.576 169.429C149.576 185.973 163.035 199.432 179.579 199.432C180.866 199.432 182.132 199.341 183.377 199.183L143.134 239.425H36.0146C27.1847 239.425 20.0008 232.241 20.0008 223.411V36.0136C20.0008 27.1837 27.1847 19.9998 36.0146 19.9998H401.089L435.096 54.0064H332.696ZM437.996 138.005C432.482 138.005 427.996 133.519 427.996 128.005C427.996 122.492 432.482 118.006 437.996 118.006C440.278 118.006 442.378 118.783 444.063 120.075C444.328 120.421 444.61 120.759 444.926 121.075C445.242 121.391 445.58 121.673 445.926 121.938C447.218 123.623 447.995 125.723 447.995 128.004C447.996 133.519 443.51 138.005 437.996 138.005Z" fill="#F31337"/>
<path d="M332.595 295.832C335.247 295.832 337.791 294.778 339.666 292.903L362.293 270.275C366.198 266.37 366.198 260.038 362.293 256.132C358.388 252.228 352.056 252.228 348.151 256.132L332.595 271.689L283.098 222.192C279.194 218.288 272.861 218.288 268.956 222.192C265.051 226.097 265.051 232.429 268.956 236.335L325.524 292.903C327.4 294.778 329.944 295.832 332.595 295.832Z" fill="white"/>
<path d="M410.376 208.051C406.471 204.147 400.139 204.147 396.233 208.051L383.506 220.778L369.364 206.638L382.092 193.91C385.996 190.005 385.996 183.673 382.092 179.767C378.187 175.863 371.855 175.863 367.949 179.767L355.221 192.495L341.079 178.353L353.807 165.625C357.712 161.72 357.713 155.388 353.807 151.482C349.902 147.579 343.57 147.578 339.665 151.482L319.866 171.281C317.991 173.156 316.937 175.7 316.937 178.352C316.937 181.004 317.991 183.547 319.866 185.423L376.435 241.99C378.387 243.942 380.947 244.919 383.506 244.919C386.064 244.919 388.624 243.942 390.576 241.99L410.375 222.191C414.281 218.287 414.281 211.956 410.376 208.051Z" fill="white"/>
<path d="M299.772 323.025C304.691 325.533 310.714 323.575 313.222 318.654C315.729 313.733 313.772 307.712 308.85 305.205L233.898 267.022C230.038 265.055 225.351 265.798 222.288 268.861C219.225 271.924 218.482 276.612 220.449 280.471L258.633 355.423C260.399 358.891 263.909 360.887 267.551 360.886C269.078 360.886 270.629 360.535 272.082 359.794C277.003 357.287 278.96 351.266 276.454 346.345L273.388 340.325L293.755 319.958L299.772 323.025ZM263.841 321.588L252.237 298.809L275.017 310.414L263.841 321.588Z" fill="white"/>
<path d="M203.904 400.381C199.999 404.286 199.998 410.618 203.904 414.524C205.857 416.476 208.416 417.453 210.975 417.453C213.534 417.453 216.093 416.476 218.045 414.524L232.188 400.382C243.885 388.685 243.885 369.654 232.188 357.956C221.07 346.838 203.332 346.296 191.557 356.312C191.191 356.589 190.835 356.883 190.502 357.217L189.762 357.956C187.873 359.845 185.362 360.885 182.691 360.885C180.02 360.885 177.509 359.845 175.62 357.956C171.721 354.057 171.721 347.713 175.62 343.813L189.762 329.671C193.667 325.766 193.668 319.434 189.762 315.528C185.857 311.625 179.525 311.624 175.62 315.528L161.477 329.67C149.78 341.367 149.78 360.4 161.477 372.098C167.144 377.764 174.677 380.884 182.69 380.884C190.692 380.884 198.216 377.772 203.882 372.118C203.889 372.111 203.897 372.105 203.904 372.098C207.802 368.198 214.146 368.198 218.045 372.098C219.934 373.987 220.974 376.497 220.974 379.168C220.974 381.84 219.934 384.351 218.045 386.239L203.904 400.381Z" fill="white"/>
<path d="M171.337 64.5563C166.528 61.8423 160.428 63.5383 157.713 68.3482L93.2139 182.601C90.4989 187.411 92.1959 193.51 97.0059 196.225C98.5598 197.102 100.247 197.519 101.913 197.519C105.403 197.519 108.792 195.689 110.63 192.433L175.129 78.1801C177.844 73.3701 176.147 67.2702 171.337 64.5563Z" fill="#F31337"/>
<path d="M125.176 89.997C125.176 73.453 111.717 59.994 95.173 59.994C78.629 59.994 65.169 73.453 65.169 89.997C65.169 106.541 78.628 120.001 95.172 120.001C111.716 120.001 125.176 106.541 125.176 89.997ZM85.169 89.997C85.169 84.481 89.656 79.994 95.172 79.994C100.688 79.994 105.175 84.481 105.175 89.997C105.175 95.514 100.688 100.001 95.172 100.001C89.656 100.001 85.169 95.514 85.169 89.997Z" fill="#F31337"/>
<path d="M371.987 353.315C369.347 353.315 366.777 354.385 364.917 356.246C363.057 358.105 361.987 360.685 361.987 363.315C361.987 365.946 363.057 368.526 364.917 370.385C366.777 372.245 369.347 373.315 371.987 373.315C374.617 373.315 377.197 372.246 379.057 370.385C380.917 368.526 381.987 365.946 381.987 363.315C381.987 360.685 380.917 358.105 379.057 356.246C377.197 354.386 374.617 353.315 371.987 353.315Z" fill="white"/>
</g>
<defs>
<clipPath id="clip0">
<rect width="512" height="512" fill="white"/>
</clipPath>
</defs>
</svg>
