<svg width="512" height="512" viewBox="0 0 512 512" fill="none" xmlns="http://www.w3.org/2000/svg">
<g clip-path="url(#clip0)">
<path d="M499.5 45.837H139.7C132.807 45.837 127.2 51.444 127.2 58.337V93.142H7.5C3.358 93.142 0 96.5 0 100.642C0 104.784 3.358 108.142 7.5 108.142H127.2V132.418H37.713C33.571 132.418 30.213 135.776 30.213 139.918C30.213 144.06 33.571 147.418 37.713 147.418H127.2V171.695H67.925C63.783 171.695 60.425 175.053 60.425 179.195C60.425 183.337 63.783 186.695 67.925 186.695H127.2V216.015C126.496 216.003 125.794 215.988 125.087 215.988C56.114 215.989 0 272.102 0 341.076C0 410.049 56.114 466.163 125.087 466.163C158.981 466.163 189.764 452.606 212.314 430.638H438C442.142 430.638 445.5 427.28 445.5 423.138C445.5 418.996 442.142 415.638 438 415.638H225.461C240.979 394.802 250.174 368.994 250.174 341.076C250.174 277.907 203.105 225.534 142.2 217.164V186.695H219C223.142 186.695 226.5 183.337 226.5 179.195C226.5 175.053 223.142 171.695 219 171.695H142.2V147.418H199C203.142 147.418 206.5 144.06 206.5 139.918C206.5 135.776 203.142 132.418 199 132.418H142.2V108.142H178.202C182.344 108.142 185.702 104.784 185.702 100.642C185.702 96.5 182.344 93.142 178.202 93.142H142.2V60.837H278.7V136.856C278.7 142.646 283.41 147.356 289.2 147.356H350C355.79 147.356 360.5 142.646 360.5 136.856V114C360.5 109.858 357.142 106.5 353 106.5C348.858 106.5 345.5 109.858 345.5 114V132.356H293.7V60.837H345.5V79C345.5 83.142 348.858 86.5 353 86.5C357.142 86.5 360.5 83.142 360.5 79V60.837H497V415.637H473C468.858 415.637 465.5 418.995 465.5 423.137C465.5 427.279 468.858 430.637 473 430.637H499.5C506.393 430.637 512 425.03 512 418.137V58.337C512 51.445 506.393 45.837 499.5 45.837V45.837ZM235.174 341.076C235.174 401.778 185.789 451.163 125.087 451.163C64.385 451.163 15 401.778 15 341.076C15 280.374 64.385 230.989 125.087 230.989C185.789 230.989 235.174 280.374 235.174 341.076Z" fill="#F31337"/>
<path d="M362.636 344.5C358.494 344.5 355.136 347.858 355.136 352C355.136 356.142 358.494 359.5 362.636 359.5H466C470.142 359.5 473.5 356.142 473.5 352C473.5 347.858 470.142 344.5 466 344.5H362.636Z" fill="white"/>
<path d="M362 389.621H465.364C469.506 389.621 472.864 386.263 472.864 382.121C472.864 377.979 469.506 374.621 465.364 374.621H362C357.858 374.621 354.5 377.979 354.5 382.121C354.5 386.263 357.858 389.621 362 389.621Z" fill="#F31337"/>
<path d="M29.512 341.076C29.512 393.776 72.387 436.651 125.088 436.651C145.904 436.651 165.705 430.048 182.349 417.556C198.434 405.484 210.539 388.315 216.434 369.211C217.655 365.253 215.437 361.054 211.479 359.833C207.523 358.611 203.322 360.83 202.101 364.788C197.132 380.892 186.919 395.371 173.345 405.559C159.318 416.086 142.631 421.651 125.088 421.651C80.658 421.651 44.512 385.505 44.512 341.076C44.512 296.646 80.658 260.5 125.088 260.5C145.124 260.5 164.342 267.934 179.204 281.433C193.966 294.842 203.212 313.073 205.237 332.767C205.66 336.888 209.351 339.887 213.465 339.46C217.586 339.037 220.582 335.353 220.158 331.232C217.754 307.855 206.791 286.226 189.289 270.328C171.661 254.317 148.86 245.499 125.087 245.499C72.387 245.5 29.512 288.375 29.512 341.076V341.076Z" fill="white"/>
<path d="M125.087 267.866C120.945 267.866 117.587 271.224 117.587 275.366V341.075C117.587 343.815 119.082 346.337 121.485 347.653C122.61 348.269 123.849 348.575 125.087 348.575C126.495 348.575 127.899 348.179 129.128 347.394L170.901 320.686C174.391 318.455 175.411 313.817 173.18 310.327C170.949 306.836 166.311 305.818 162.821 308.048L132.588 327.378V275.365C132.587 271.224 129.229 267.866 125.087 267.866V267.866Z" fill="#F31337"/>
<path d="M473.5 190C473.5 184.21 468.79 179.5 463 179.5H365C359.21 179.5 354.5 184.21 354.5 190V318C354.5 323.79 359.21 328.5 365 328.5H463C468.79 328.5 473.5 323.79 473.5 318V190ZM458.5 313.5H369.5V194.5H458.5V313.5Z" fill="white"/>
<path d="M387.09 243.072C390.226 245.778 394.962 245.428 397.668 242.292L406.5 232.054V267.813C406.5 271.955 409.858 275.313 414 275.313C418.142 275.313 421.5 271.955 421.5 267.813V232.054L430.332 242.292C431.815 244.012 433.909 244.893 436.014 244.893C437.749 244.893 439.493 244.294 440.91 243.072C444.047 240.366 444.395 235.631 441.69 232.494L419.679 206.98C418.254 205.328 416.181 204.379 414 204.379C411.819 204.379 409.746 205.328 408.321 206.98L386.31 232.494C383.605 235.63 383.954 240.366 387.09 243.072Z" fill="#F31337"/>
<path d="M390.131 303.621H437.868C442.01 303.621 445.368 300.263 445.368 296.121C445.368 291.979 442.01 288.621 437.868 288.621H390.131C385.989 288.621 382.631 291.979 382.631 296.121C382.631 300.263 385.989 303.621 390.131 303.621Z" fill="white"/>
</g>
<defs>
<clipPath id="clip0">
<rect width="512" height="512" fill="white"/>
</clipPath>
</defs>
</svg>
