<svg width="512" height="512" viewBox="0 0 512 512" fill="none" xmlns="http://www.w3.org/2000/svg">
<g clip-path="url(#clip0)">
<path d="M83.7075 208.88C88.656 213.506 99.1765 214.513 105.041 207.64L142.588 164.803C148.042 158.581 147.413 149.121 141.185 143.673C134.957 138.226 125.487 138.851 120.034 145.074L92.5232 176.461L85.1495 169.795C79.0098 164.247 69.5326 164.72 63.9775 170.853C58.4235 176.985 58.8971 186.453 65.0358 192.003L83.7075 208.88Z" fill="white"/>
<path d="M268.148 182.215H181.659C173.381 182.215 166.67 188.92 166.67 197.19C166.67 205.46 173.381 212.164 181.659 212.164H268.148C276.426 212.164 283.138 205.46 283.138 197.19C283.138 188.92 276.426 182.215 268.148 182.215Z" fill="white"/>
<path d="M268.148 244.327H73.8615C65.5834 244.327 58.8722 251.032 58.8722 259.302C58.8722 267.572 65.5834 274.276 73.8615 274.276H268.148C276.426 274.276 283.138 267.572 283.138 259.302C283.138 251.032 276.426 244.327 268.148 244.327V244.327Z" fill="white"/>
<path d="M83.7075 380.537C88.656 385.164 99.1765 386.171 105.041 379.298L142.588 336.461C148.042 330.239 147.413 320.779 141.185 315.331C134.957 309.884 125.487 310.509 120.034 316.732L92.5232 348.119L85.1495 341.454C79.0098 335.906 69.5316 336.38 63.9775 342.512C58.4235 348.644 58.8971 358.113 65.0358 363.661L83.7075 380.537Z" fill="white"/>
<path d="M268.148 353.818H181.659C173.381 353.818 166.67 360.523 166.67 368.793C166.67 377.063 173.381 383.767 181.659 383.767H268.148C276.426 383.767 283.138 377.063 283.138 368.793C283.138 360.523 276.426 353.818 268.148 353.818Z" fill="white"/>
<path d="M268.148 415.042H73.8615C65.5834 415.042 58.8722 421.746 58.8722 430.016C58.8722 438.286 65.5834 444.991 73.8615 444.991H268.148C276.426 444.991 283.138 438.286 283.138 430.016C283.138 421.746 276.426 415.042 268.148 415.042Z" fill="white"/>
<path d="M475.182 0H189.768C187.052 0.0129908 183.806 0.547611 180.599 1.79472C177.567 1.21314 174.46 0.911352 171.308 0.911352C158.45 0.911352 146.314 5.86683 137.14 14.8654C131.601 20.2976 127.515 26.8359 125.093 33.9888H109.073C97.7587 33.9888 88.4933 42.8146 87.7548 53.9337H34.8944C15.792 53.9337 0.251007 69.4586 0.251007 88.5421V477.393C0.251007 496.476 15.792 512.001 34.8944 512.001H307.723C323.704 512.001 337.185 501.133 341.168 486.408H477.701C495.715 485.316 512.083 468.962 511.745 449.883V36.525C511.745 16.3853 495.343 0 475.182 0V0ZM117.661 63.9365H137.524C145.686 63.9365 152.347 57.4142 152.511 49.263C152.715 39.1142 161.148 30.8581 171.308 30.8581C181.469 30.8581 189.902 39.1142 190.107 49.263C190.271 57.4142 196.932 63.9365 205.093 63.9365H224.957V80.4298H117.661V63.9365ZM312.388 477.392C312.388 479.962 310.296 482.052 307.723 482.052H34.8944C32.3222 482.052 30.2297 479.962 30.2297 477.392V88.541C30.2297 85.9719 32.3222 83.8814 34.8944 83.8814H87.6819V87.0631C87.6819 99.919 98.1514 110.379 111.02 110.379H231.598C244.466 110.379 254.936 99.92 254.936 87.0631V83.8814H307.723C310.296 83.8814 312.388 85.9719 312.388 88.541V477.392ZM481.767 449.882C481.767 453.222 479.268 456.026 475.955 456.405C475.811 456.421 475.667 456.439 475.524 456.46H342.367V88.541C342.367 69.4586 326.826 53.9327 307.723 53.9327H254.854C254.024 42.7996 244.711 33.9878 233.357 33.9878H217.524C217.059 32.6148 216.513 31.2718 215.928 29.9477H475.182C478.813 29.9477 481.767 32.8986 481.767 36.525V449.882Z" fill="#F31337"/>
</g>
<defs>
<clipPath id="clip0">
<rect width="512" height="512" fill="white"/>
</clipPath>
</defs>
</svg>
