<svg width="512" height="512" viewBox="0 0 512 512" fill="none" xmlns="http://www.w3.org/2000/svg">
<path d="M498.628 453.373L374.628 329.373C370.117 324.873 364.367 321.82 358.113 320.603C351.859 319.387 345.384 320.063 339.515 322.544L305.754 288.784C333.025 257.543 348.036 217.469 348 176C348 81.159 270.841 4 176 4C81.159 4 4 81.159 4 176C4 270.841 81.159 348 176 348C217.469 348.036 257.543 333.026 288.783 305.754L322.544 339.515C320.063 345.383 319.387 351.858 320.603 358.112C321.819 364.366 324.872 370.116 329.372 374.627L453.372 498.627C456.343 501.599 459.871 503.956 463.753 505.564C467.636 507.172 471.797 508 475.999 508C480.202 508 484.363 507.173 488.245 505.565C492.128 503.956 495.655 501.599 498.627 498.628C501.599 495.657 503.956 492.129 505.564 488.247C507.172 484.364 508 480.203 508 476.001C508 471.798 507.173 467.637 505.565 463.755C503.956 459.872 501.599 456.345 498.628 453.373V453.373ZM28 176C28 94.393 94.393 28 176 28C257.607 28 324 94.393 324 176C324 257.607 257.607 324 176 324C94.393 324 28 257.607 28 176ZM481.657 481.657C480.152 483.148 478.119 483.985 476 483.985C473.881 483.985 471.848 483.148 470.343 481.657L346.343 357.657C338.904 350.417 350.423 338.904 357.657 346.343L481.657 470.343C483.154 471.845 483.995 473.879 483.995 476C483.995 478.121 483.154 480.155 481.657 481.657V481.657Z" fill="#F31337"/>
<path d="M176 52C151.475 52 127.501 59.2725 107.109 72.8978C86.7176 86.5231 70.8242 105.889 61.4389 128.547C52.0537 151.205 49.5981 176.138 54.3826 200.191C59.1672 224.245 70.977 246.34 88.3188 263.681C105.66 281.023 127.755 292.833 151.809 297.617C175.862 302.402 200.795 299.946 223.453 290.561C246.111 281.176 265.477 265.282 279.102 244.891C292.728 224.499 300 200.525 300 176C299.963 143.125 286.887 111.606 263.64 88.3597C240.394 65.1132 208.875 52.0371 176 52V52ZM176 276C156.222 276 136.888 270.135 120.443 259.147C103.998 248.159 91.1808 232.541 83.612 214.268C76.0433 195.996 74.0629 175.889 77.9215 156.491C81.78 137.093 91.3041 119.275 105.289 105.289C119.275 91.3041 137.093 81.78 156.491 77.9215C175.889 74.0629 195.996 76.0433 214.268 83.612C232.541 91.1808 248.159 103.998 259.147 120.443C270.135 136.888 276 156.222 276 176C275.97 202.512 265.425 227.93 246.678 246.678C227.93 265.425 202.512 275.97 176 276V276Z" fill="#F31337"/>
<path d="M224 116H128C124.817 116 121.765 117.264 119.515 119.515C117.264 121.765 116 124.817 116 128V224C116 227.183 117.264 230.235 119.515 232.485C121.765 234.736 124.817 236 128 236H224C227.183 236 230.235 234.736 232.485 232.485C234.736 230.235 236 227.183 236 224V128C236 124.817 234.736 121.765 232.485 119.515C230.235 117.264 227.183 116 224 116ZM212 212H140V204H176C179.183 204 182.235 202.736 184.485 200.485C186.736 198.235 188 195.183 188 192C188 188.817 186.736 185.765 184.485 183.515C182.235 181.264 179.183 180 176 180H140V140H164V144C164 147.183 165.264 150.235 167.515 152.485C169.765 154.736 172.817 156 176 156C179.183 156 182.235 154.736 184.485 152.485C186.736 150.235 188 147.183 188 144V140H212V212Z" fill="white"/>
<path d="M375.515 218.426C377.765 220.676 380.818 221.94 384 221.94C387.182 221.94 390.235 220.676 392.485 218.426C403.721 207.165 410.03 191.907 410.03 176C410.03 160.093 403.721 144.835 392.485 133.574C390.228 131.354 387.186 130.115 384.02 130.128C380.855 130.141 377.822 131.404 375.584 133.643C373.345 135.881 372.082 138.914 372.069 142.079C372.056 145.245 373.295 148.287 375.515 150.544C382.256 157.301 386.042 166.456 386.042 176C386.042 185.544 382.256 194.699 375.515 201.456C373.265 203.706 372.001 206.759 372.001 209.941C372.001 213.123 373.265 216.176 375.515 218.426Z" fill="white"/>
<path d="M409.456 235.4C398.283 246.253 415.581 263.539 426.427 252.371C436.456 242.342 444.411 230.436 449.839 217.333C455.266 204.23 458.06 190.186 458.06 176.003C458.06 161.82 455.266 147.776 449.839 134.673C444.411 121.57 436.456 109.664 426.427 99.635C424.164 97.4487 421.133 96.2386 417.987 96.2654C414.84 96.2922 411.83 97.5537 409.605 99.7782C407.38 102.003 406.117 105.012 406.089 108.159C406.061 111.305 407.27 114.336 409.456 116.6C425.188 132.366 434.023 153.728 434.023 176C434.023 198.272 425.188 219.635 409.456 235.4Z" fill="white"/>
<path d="M482.059 176C482.107 193.341 478.715 210.52 472.079 226.541C465.443 242.563 455.695 257.109 443.4 269.338C432.228 280.19 449.525 297.477 460.371 286.309C474.857 271.823 486.348 254.626 494.188 235.699C502.028 216.772 506.063 196.486 506.063 176C506.063 155.514 502.028 135.228 494.188 116.301C486.348 97.3743 474.857 80.177 460.371 65.691C458.121 63.4405 455.068 62.1762 451.886 62.1762C448.703 62.1762 445.651 63.4405 443.4 65.691C441.15 67.9415 439.885 70.9938 439.885 74.1765C439.885 77.3592 441.15 80.4115 443.4 82.662C455.695 94.891 465.443 109.437 472.079 125.459C478.715 141.48 482.107 158.659 482.059 176Z" fill="white"/>
</svg>
