<svg xmlns="http://www.w3.org/2000/svg" xmlns:xlink="http://www.w3.org/1999/xlink" version="1.1" style="enable-background:new 0 0 512.021 512.021;" xml:space="preserve" width="512.02099609375" height="512.02099609375"><rect id="backgroundrect" width="100%" height="100%" x="0" y="0" fill="none" stroke="none"/>


















<g class="currentLayer" style=""><title>Layer 1</title><g id="svg_1" class="" transform="rotate(104.52645874023438 181.31362915039062,302.9687194824218) " fill="#ffffff" fill-opacity="1">
	<g id="svg_2" fill="#ffffff" fill-opacity="1">
		<g id="svg_3" fill="#ffffff" fill-opacity="1">
			<path d="M357.9194961929321,237.99176094818114 l-80.235,-88.128 c-15.381,-15.424 -42.091,-15.531 -57.749,0.128 c-5.056,5.056 -8.512,11.136 -10.304,17.621 c-15.573,-11.947 -39.339,-10.645 -53.696,3.712 c-5.056,5.056 -8.512,11.136 -10.347,17.6 c-15.531,-11.947 -39.317,-10.581 -53.653,3.733 c-4.971,4.971 -8.384,10.923 -10.24,17.216 l-37.803,-37.803 c-15.893,-15.872 -41.707,-15.915 -57.771,0.128 c-15.893,15.872 -15.893,41.728 0,57.621 l145.237,145.237 l-86.101,13.525 C21.961496192932117,391.91176094818115 4.404496192932129,412.13576094818114 4.404496192932129,435.6657609481812 c0,17.643 14.357,32 32,32 h201.152 c31.317,0 60.779,-12.203 83.008,-34.389 l33.536,-33.557 c22.144,-22.123 34.325,-51.563 34.325,-82.859 C388.4254961929321,287.63376094818113 377.58849619293215,259.62376094818114 357.9194961929321,237.99176094818114 zM338.9964961929321,384.65776094818114 l-33.536,33.557 c-18.155,18.133 -42.283,28.117 -67.904,28.117 H36.40449619293213 c-5.867,0 -10.667,-4.779 -10.667,-10.667 c0,-12.971 9.685,-24.128 22.656,-26.005 l106.987,-16.811 c3.968,-0.6190000000000005 7.232,-3.4130000000000003 8.491,-7.232 c1.237,-3.797 0.23500000000000001,-8 -2.603,-10.837 L1.204496192932126,214.71676094818116 c-7.552,-7.573 -7.552,-19.883 0.128,-27.584 c3.797,-3.776 8.768,-5.675 13.739,-5.675 c4.971,0 9.941,1.899 13.739,5.696 L91.44449619293212,249.78876094818116 c0.14900000000000013,0.171 0.3410000000000004,0.3410000000000004 0.512,0.512 l43.605,43.584 c4.16,4.16 10.923,4.16 15.083,0 c4.16,-4.16 4.16,-10.923 0,-15.083 l-43.968,-43.968 c-7.189,-7.595 -7.061,-19.648 0.49100000000000027,-27.221 c7.339,-7.296 20.096,-7.339 27.435,0 l20.971,20.992 c0.128,0.128 0.23500000000000001,0.256 0.36300000000000027,0.36300000000000027 l22.272,22.251 c4.16,4.16 10.923,4.16 15.083,0 c4.16,-4.16 4.16,-10.923 0,-15.083 l-22.528,-22.507 c-7.275,-7.595 -7.189,-19.733 0.405,-27.349 c7.317,-7.296 20.096,-7.339 27.435,0 l22.272,22.357 c0.02100000000000002,0.02100000000000002 0.02100000000000002,0.04300000000000005 0.04300000000000005,0.04300000000000005 l0.02100000000000002,0.02100000000000002 c0.17300000000000001,0.0870000000000001 0.13,0.06500000000000007 0.0850000000000001,0.04300000000000005 c0,0 0,0.02100000000000002 0.02100000000000002,0.02100000000000002 c0.02100000000000002,0.02100000000000002 0.02100000000000002,0.02100000000000002 0.02100000000000002,0.02100000000000002 c0.02100000000000002,0.02100000000000002 0.02100000000000002,0.02100000000000002 0.02100000000000002,0.02100000000000002 h0.02100000000000002 c0.02100000000000002,0 0.02100000000000002,0 0.02100000000000002,0 c4.224,3.925 10.795,3.819 14.848,-0.277 c4.139,-4.16 4.139,-10.901 -0.02100000000000002,-15.061 l-1.28,-1.28 c-7.211,-7.595 -7.104,-19.669 0.46900000000000025,-27.243 c7.339,-7.296 20.437,-6.976 27.093,-0.36300000000000027 l79.872,87.787 c16.107,17.707 24.96,40.597 24.96,64.512 C367.0714961929321,342.46076094818113 357.0874961929321,366.54576094818117 338.9964961929321,384.65776094818114 z" id="svg_4" fill="#ffffff" fill-opacity="1"/>
			<path d="M221.0014961929321,208.74376094818115 h0.02100000000000002 c-0.022000000000000033,-0.011000000000000015 -0.04300000000000005,-0.02100000000000002 -0.04300000000000005,-0.02100000000000002 C221.0014961929321,208.74376094818115 221.02349619293216,208.74376094818115 221.0014961929321,208.74376094818115 z" id="svg_5" fill="#ffffff" fill-opacity="1"/>
		</g>
	</g>
</g><g id="svg_6" class="" transform="rotate(108.41214752197266 305.0620422363282,151.10235595703125) " fill="#ffffff" fill-opacity="1">
	<g id="svg_7" fill="#ffffff" fill-opacity="1">
		<path d="M394.608324760437,79.59528987789153 c-15.552,-34.389 -49.835,-56.619 -87.403,-56.619 c-52.928,0 -96,43.072 -96,96 c0,37.547 22.229,71.851 56.597,87.403 c1.429,0.6400000000000005 2.923,0.9390000000000004 4.3950000000000005,0.9390000000000004 c4.075,0 7.936,-2.347 9.728,-6.272 c2.411,-5.376 0.04300000000000004,-11.691 -5.333,-14.123 C249.840324760437,174.82728987789153 232.539324760437,148.16128987789153 232.539324760437,118.97728987789154 c0,-41.173 33.493,-74.667 74.667,-74.667 c29.184,0 55.851,17.301 67.947,44.053 c2.432,5.376 8.725,7.7650000000000015 14.123,5.333 C394.630324760437,91.28628987789153 397.01932476043703,84.95028987789155 394.608324760437,79.59528987789153 z" id="svg_8" fill="#ffffff" fill-opacity="1"/>
	</g>
</g><g id="svg_9" class="" transform="rotate(110.26931762695312 346.5558471679688,166.75878906250003) " fill="#ffffff" fill-opacity="1">
	<g id="svg_10" fill="#ffffff" fill-opacity="1">
		<path d="M464.6678419189453,127.71131595420837 C448.56184191894533,67.06031595420838 393.4998419189453,24.692315954208375 330.80184191894534,24.692315954208375 C254.34284191894528,24.692315954208375 192.1348419189453,86.90031595420838 192.1348419189453,163.35931595420837 c0,62.699 42.368,117.76 103.04,133.867 c0.917,0.256 1.835,0.36300000000000027 2.731,0.36300000000000027 c4.736,0 9.045,-3.136 10.304,-7.915 c1.5150000000000001,-5.696 -1.856,-11.541 -7.573,-13.056 c-51.307,-13.632 -87.168,-60.203 -87.168,-113.259 c0,-64.704 52.651,-117.333 117.333,-117.333 c53.035,0 99.627,35.84 113.259,87.168 c1.493,5.675 7.147,9.088 13.056,7.573 C462.7908419189453,139.25231595420837 466.1618419189453,133.40731595420837 464.6678419189453,127.71131595420837 z" id="svg_11" fill="#ffffff" fill-opacity="1"/>
	</g>
</g><g id="svg_12">
</g><g id="svg_13">
</g><g id="svg_14">
</g><g id="svg_15">
</g><g id="svg_16">
</g><g id="svg_17">
</g><g id="svg_18">
</g><g id="svg_19">
</g><g id="svg_20">
</g><g id="svg_21">
</g><g id="svg_22">
</g><g id="svg_23">
</g><g id="svg_24">
</g><g id="svg_25">
</g><g id="svg_26">
</g></g></svg>